<svg id="Layer_1" enable-background="new 0 0 128 128" height="512" viewBox="0 0 128 128" width="512" xmlns="http://www.w3.org/2000/svg"><g><path d="m101.7 30.3h-16.7v-11.3c0-.9-.8-1.7-1.8-1.7h-57c-1 0-1.7.8-1.8 1.7v77c0 1 .8 1.8 1.8 1.8h16.8v11.2c0 1 .8 1.7 1.7 1.8h57c1 0 1.7-.8 1.8-1.7v-77.1c-.1-.9-.8-1.7-1.8-1.7zm-20.2 0h-26.1l26.2-8.8v8.8zm-53.4 63.9v-73.5h44.6l-28.5 9.6c-.7.3-1.2.9-1.2 1.7v62.2zm71.8 13h-53.4v-73.4h53.5z"/><path d="m68.2 40.2h-12.9c-1 0-1.8.8-1.8 1.8v12.9c0 1 .8 1.7 1.8 1.8h12.9c1 0 1.8-.8 1.8-1.7v-13.1c0-.9-.8-1.7-1.8-1.7zm-1.7 12.9h-9.4v-9.4h9.4z"/><path d="m68.2 62.3h-12.9c-1 0-1.8.8-1.8 1.8v12.9c0 1 .8 1.8 1.8 1.8h12.9c1 0 1.8-.8 1.8-1.7v-13.1c0-.9-.8-1.7-1.8-1.7zm-1.7 12.9h-9.4v-9.4h9.4z"/><path d="m68.2 84.4h-12.9c-1 0-1.8.8-1.8 1.8v12.9c0 1 .8 1.8 1.8 1.8h12.9c1 0 1.8-.8 1.8-1.7v-13c0-1-.8-1.8-1.8-1.8zm-1.7 13h-9.4v-9.4h9.4z"/><path d="m76.3 44.6c0 1 .8 1.7 1.7 1.8h13c1 0 1.8-.8 1.8-1.8s-.8-1.8-1.8-1.8h-13c-.9 0-1.7.8-1.7 1.8z"/><path d="m91.1 50.4h-13c-1 0-1.8.8-1.8 1.8s.8 1.8 1.8 1.8h13c1 0 1.8-.8 1.8-1.8s-.8-1.8-1.8-1.8z"/><path d="m91.1 65h-13c-1 0-1.8.8-1.8 1.8s.8 1.8 1.8 1.8h13c1 0 1.8-.8 1.8-1.8s-.8-1.8-1.8-1.8z"/><path d="m91.1 72.6h-13c-1 0-1.8.8-1.8 1.8s.8 1.8 1.8 1.8h13c1 0 1.8-.8 1.8-1.8s-.8-1.8-1.8-1.8z"/><path d="m91.1 87.1h-13c-1 0-1.8.8-1.8 1.8s.8 1.8 1.8 1.8h13c1 0 1.8-.8 1.8-1.8s-.8-1.8-1.8-1.8z"/><path d="m91.1 94.7h-13c-1 0-1.8.8-1.8 1.8s.8 1.8 1.8 1.8h13c1 0 1.8-.8 1.8-1.8s-.8-1.8-1.8-1.8z"/></g></svg>