<svg width="24" height="24" viewBox="0 0 24 24" fill="none" xmlns="http://www.w3.org/2000/svg">
<path d="M20.9471 8.30499C20.937 7.54761 20.7952 6.79776 20.5281 6.08899C20.2964 5.49114 19.9426 4.94819 19.4892 4.49482C19.0359 4.04145 18.4929 3.68764 17.8951 3.45599C17.1954 3.19334 16.4562 3.05133 15.7091 3.03599C14.7471 2.99299 14.4421 2.98099 12.0001 2.98099C9.55807 2.98099 9.24507 2.98099 8.29007 3.03599C7.54323 3.05144 6.80442 3.19346 6.10507 3.45599C5.50713 3.68748 4.96409 4.04123 4.5107 4.49462C4.05732 4.94801 3.70356 5.49105 3.47207 6.08899C3.2089 6.78812 3.06719 7.5271 3.05307 8.27399C3.01007 9.23699 2.99707 9.54199 2.99707 11.984C2.99707 14.426 2.99707 14.738 3.05307 15.694C3.06807 16.442 3.20907 17.18 3.47207 17.881C3.70395 18.4787 4.05797 19.0216 4.51151 19.4748C4.96505 19.928 5.50813 20.2816 6.10607 20.513C6.8035 20.7862 7.54244 20.9384 8.29107 20.963C9.25407 21.006 9.55907 21.019 12.0011 21.019C14.4431 21.019 14.7561 21.019 15.7111 20.963C16.4582 20.9483 17.1974 20.8066 17.8971 20.544C18.4948 20.3121 19.0376 19.9582 19.4909 19.5048C19.9442 19.0515 20.2982 18.5087 20.5301 17.911C20.7931 17.211 20.9341 16.473 20.9491 15.724C20.9921 14.762 21.0051 14.457 21.0051 12.014C21.0031 9.57199 21.0031 9.26199 20.9471 8.30499ZM11.9941 16.602C9.44007 16.602 7.37107 14.533 7.37107 11.979C7.37107 9.42499 9.44007 7.35599 11.9941 7.35599C13.2202 7.35599 14.396 7.84305 15.263 8.71003C16.13 9.57701 16.6171 10.7529 16.6171 11.979C16.6171 13.2051 16.13 14.381 15.263 15.2479C14.396 16.1149 13.2202 16.602 11.9941 16.602ZM16.8011 8.26299C16.2041 8.26299 15.7231 7.78099 15.7231 7.18499C15.7231 7.04349 15.7509 6.90337 15.8051 6.77265C15.8592 6.64192 15.9386 6.52314 16.0387 6.42308C16.1387 6.32302 16.2575 6.24366 16.3882 6.18951C16.519 6.13536 16.6591 6.10749 16.8006 6.10749C16.9421 6.10749 17.0822 6.13536 17.2129 6.18951C17.3436 6.24366 17.4624 6.32302 17.5625 6.42308C17.6625 6.52314 17.7419 6.64192 17.7961 6.77265C17.8502 6.90337 17.8781 7.04349 17.8781 7.18499C17.8781 7.78099 17.3961 8.26299 16.8011 8.26299Z" fill="#2F2F2F"/>
<path d="M11.994 14.982C13.6525 14.982 14.997 13.6375 14.997 11.979C14.997 10.3205 13.6525 8.97601 11.994 8.97601C10.3355 8.97601 8.99097 10.3205 8.99097 11.979C8.99097 13.6375 10.3355 14.982 11.994 14.982Z" fill="#2F2F2F"/>
</svg>
