<svg width="28" height="24" viewBox="0 0 28 24" fill="none" xmlns="http://www.w3.org/2000/svg">
<g clip-path="url(#clip0)">
<path d="M27.4167 6.50701C27.2581 6.02225 26.9493 5.58336 26.523 5.23702C26.0847 4.88002 25.5474 4.62465 24.962 4.49501C22.771 4.00001 13.993 4.00002 13.993 4.00002C10.3335 3.96433 6.67499 4.12129 3.03799 4.47001C2.45254 4.60923 1.91631 4.8703 1.47699 5.23002C1.04532 5.58601 0.732654 6.02502 0.569321 6.50602C0.176963 8.31776 -0.0136717 10.1574 -1.23748e-05 12C-0.0140124 13.841 0.176154 15.68 0.569321 17.494C0.729154 17.973 1.04065 18.41 1.47349 18.763C1.90632 19.116 2.44532 19.371 3.03799 19.506C5.25815 20 13.993 20 13.993 20C17.6571 20.0358 21.3203 19.8788 24.962 19.53C25.5474 19.4004 26.0847 19.145 26.523 18.788C26.9547 18.435 27.2615 17.996 27.4155 17.518C27.8181 15.707 28.0138 13.8666 28 12.023C28.0303 10.1716 27.8348 8.32258 27.4167 6.50602V6.50701ZM11.2023 15.424V8.57701L18.5057 12.001L11.2023 15.424Z" fill="#2F2F2F"/>
</g>
<defs>
<clipPath id="clip0">
<rect width="28" height="24" fill="white"/>
</clipPath>
</defs>
</svg>
